<?xml version="1.0" standalone="no"?>
<!DOCTYPE svg PUBLIC "-//W3C//DTD SVG 20010904//EN"
 "http://www.w3.org/TR/2001/REC-SVG-20010904/DTD/svg10.dtd">
<svg version="1.0" xmlns="http://www.w3.org/2000/svg"
 width="1050.000000pt" height="1050.000000pt" viewBox="0 0 1050.000000 1050.000000"
 preserveAspectRatio="xMidYMid meet">
<metadata>
Created by potrace 1.11, written by Peter Selinger 2001-2013
</metadata>
<g transform="translate(0.000000,1050.000000) scale(0.100000,-0.100000)"
fill="#000000" stroke="none">
<path d="M4885 10494 c-22 -2 -92 -9 -155 -14 -723 -67 -1474 -308 -2110 -678
-1366 -794 -2301 -2144 -2554 -3689 -55 -332 -61 -419 -61 -863 0 -444 6 -531
61 -863 249 -1519 1164 -2858 2497 -3654 217 -129 726 -378 741 -362 4 3 86
665 158 1259 26 221 31 520 9 615 -54 237 -146 404 -414 748 -176 227 -253
340 -317 467 -144 288 -174 511 -131 975 56 601 216 1981 418 3618 l57 467 53
0 53 0 0 -1921 c0 -1907 0 -1922 20 -1954 51 -82 164 -66 199 28 7 17 37 773
76 1935 36 1048 67 1906 68 1907 1 0 37 -1 81 -3 l79 -4 -8 -1902 c-7 -1896
-7 -1903 13 -1949 46 -103 167 -101 205 5 13 36 27 358 81 1941 35 1044 66
1900 68 1903 3 2 38 1 79 -2 l74 -7 -3 -1908 c-3 -2105 -7 -1957 60 -1999 55
-35 125 -11 161 55 7 13 34 702 76 1935 l66 1915 40 3 c22 1 47 -2 55 -7 16
-11 27 -131 155 -1656 85 -1026 145 -1794 176 -2265 39 -597 17 -795 -116
-1075 -76 -158 -142 -252 -394 -555 -242 -290 -335 -438 -395 -630 -67 -212
-68 -316 -11 -995 95 -1115 103 -1208 115 -1215 16 -10 292 -54 480 -77 184
-22 875 -26 1065 -5 125 14 379 50 405 58 13 3 21 52 43 242 15 130 27 253 27
272 0 19 -22 202 -49 405 -177 1323 -289 2598 -331 3754 -12 315 -7 444 31
876 102 1171 364 2146 743 2769 225 369 496 606 696 609 134 1 257 -116 276
-264 3 -24 -79 -1898 -181 -4164 -102 -2266 -184 -4137 -183 -4157 l3 -37 120
53 c611 270 1144 635 1610 1101 782 782 1292 1772 1469 2852 55 332 61 419 61
863 0 444 -6 531 -61 863 -102 622 -318 1226 -632 1767 -794 1367 -2147 2303
-3692 2555 -309 50 -404 57 -805 60 -209 2 -398 1 -420 -1z"/>
</g>
</svg>
